# Tiled2Unity generated file. Do not modify by hand.
# Wavefront file for 'TMX_1_4_mesh_0002.obj'

# Vertices (Count = 800)
v 0 -408 0
v -24 -408 0
v -24 -384 0
v 0 -384 0
v -24 -408 0
v -48 -408 0
v -48 -384 0
v -24 -384 0
v -48 -408 0
v -72 -408 0
v -72 -384 0
v -48 -384 0
v -72 -408 0
v -96 -408 0
v -96 -384 0
v -72 -384 0
v -96 -408 0
v -120 -408 0
v -120 -384 0
v -96 -384 0
v -120 -408 0
v -144 -408 0
v -144 -384 0
v -120 -384 0
v -144 -408 0
v -168 -408 0
v -168 -384 0
v -144 -384 0
v -168 -408 0
v -192 -408 0
v -192 -384 0
v -168 -384 0
v -192 -408 0
v -216 -408 0
v -216 -384 0
v -192 -384 0
v -216 -408 0
v -240 -408 0
v -240 -384 0
v -216 -384 0
v -240 -408 0
v -264 -408 0
v -264 -384 0
v -240 -384 0
v -264 -408 0
v -288 -408 0
v -288 -384 0
v -264 -384 0
v -528 -408 0
v -552 -408 0
v -552 -384 0
v -528 -384 0
v -552 -408 0
v -576 -408 0
v -576 -384 0
v -552 -384 0
v -576 -408 0
v -600 -408 0
v -600 -384 0
v -576 -384 0
v -600 -408 0
v -624 -408 0
v -624 -384 0
v -600 -384 0
v -624 -408 0
v -648 -408 0
v -648 -384 0
v -624 -384 0
v -648 -408 0
v -672 -408 0
v -672 -384 0
v -648 -384 0
v -672 -408 0
v -696 -408 0
v -696 -384 0
v -672 -384 0
v -696 -408 0
v -720 -408 0
v -720 -384 0
v -696 -384 0
v -720 -408 0
v -744 -408 0
v -744 -384 0
v -720 -384 0
v -744 -408 0
v -768 -408 0
v -768 -384 0
v -744 -384 0
v -768 -408 0
v -792 -408 0
v -792 -384 0
v -768 -384 0
v -792 -408 0
v -816 -408 0
v -816 -384 0
v -792 -384 0
v -816 -408 0
v -840 -408 0
v -840 -384 0
v -816 -384 0
v -840 -408 0
v -864 -408 0
v -864 -384 0
v -840 -384 0
v -864 -408 0
v -888 -408 0
v -888 -384 0
v -864 -384 0
v -888 -408 0
v -912 -408 0
v -912 -384 0
v -888 -384 0
v -912 -408 0
v -936 -408 0
v -936 -384 0
v -912 -384 0
v -936 -408 0
v -960 -408 0
v -960 -384 0
v -936 -384 0
v -960 -408 0
v -984 -408 0
v -984 -384 0
v -960 -384 0
v -984 -408 0
v -1008 -408 0
v -1008 -384 0
v -984 -384 0
v -1008 -408 0
v -1032 -408 0
v -1032 -384 0
v -1008 -384 0
v -1032 -408 0
v -1056 -408 0
v -1056 -384 0
v -1032 -384 0
v -1056 -408 0
v -1080 -408 0
v -1080 -384 0
v -1056 -384 0
v -1080 -408 0
v -1104 -408 0
v -1104 -384 0
v -1080 -384 0
v -1104 -408 0
v -1128 -408 0
v -1128 -384 0
v -1104 -384 0
v -1128 -408 0
v -1152 -408 0
v -1152 -384 0
v -1128 -384 0
v -1152 -408 0
v -1176 -408 0
v -1176 -384 0
v -1152 -384 0
v -1176 -408 0
v -1200 -408 0
v -1200 -384 0
v -1176 -384 0
v -1200 -408 0
v -1224 -408 0
v -1224 -384 0
v -1200 -384 0
v -1224 -408 0
v -1248 -408 0
v -1248 -384 0
v -1224 -384 0
v -1248 -408 0
v -1272 -408 0
v -1272 -384 0
v -1248 -384 0
v -1272 -408 0
v -1296 -408 0
v -1296 -384 0
v -1272 -384 0
v -1296 -408 0
v -1320 -408 0
v -1320 -384 0
v -1296 -384 0
v -1320 -408 0
v -1344 -408 0
v -1344 -384 0
v -1320 -384 0
v -1344 -408 0
v -1368 -408 0
v -1368 -384 0
v -1344 -384 0
v -1368 -408 0
v -1392 -408 0
v -1392 -384 0
v -1368 -384 0
v -1680 -408 0
v -1704 -408 0
v -1704 -384 0
v -1680 -384 0
v -1704 -408 0
v -1728 -408 0
v -1728 -384 0
v -1704 -384 0
v 0 -432 0
v -24 -432 0
v -24 -408 0
v 0 -408 0
v -24 -432 0
v -48 -432 0
v -48 -408 0
v -24 -408 0
v -48 -432 0
v -72 -432 0
v -72 -408 0
v -48 -408 0
v -72 -432 0
v -96 -432 0
v -96 -408 0
v -72 -408 0
v -96 -432 0
v -120 -432 0
v -120 -408 0
v -96 -408 0
v -120 -432 0
v -144 -432 0
v -144 -408 0
v -120 -408 0
v -144 -432 0
v -168 -432 0
v -168 -408 0
v -144 -408 0
v -168 -432 0
v -192 -432 0
v -192 -408 0
v -168 -408 0
v -192 -432 0
v -216 -432 0
v -216 -408 0
v -192 -408 0
v -216 -432 0
v -240 -432 0
v -240 -408 0
v -216 -408 0
v -240 -432 0
v -264 -432 0
v -264 -408 0
v -240 -408 0
v -264 -432 0
v -288 -432 0
v -288 -408 0
v -264 -408 0
v -528 -432 0
v -552 -432 0
v -552 -408 0
v -528 -408 0
v -552 -432 0
v -576 -432 0
v -576 -408 0
v -552 -408 0
v -576 -432 0
v -600 -432 0
v -600 -408 0
v -576 -408 0
v -600 -432 0
v -624 -432 0
v -624 -408 0
v -600 -408 0
v -624 -432 0
v -648 -432 0
v -648 -408 0
v -624 -408 0
v -648 -432 0
v -672 -432 0
v -672 -408 0
v -648 -408 0
v -672 -432 0
v -696 -432 0
v -696 -408 0
v -672 -408 0
v -696 -432 0
v -720 -432 0
v -720 -408 0
v -696 -408 0
v -720 -432 0
v -744 -432 0
v -744 -408 0
v -720 -408 0
v -744 -432 0
v -768 -432 0
v -768 -408 0
v -744 -408 0
v -768 -432 0
v -792 -432 0
v -792 -408 0
v -768 -408 0
v -792 -432 0
v -816 -432 0
v -816 -408 0
v -792 -408 0
v -816 -432 0
v -840 -432 0
v -840 -408 0
v -816 -408 0
v -840 -432 0
v -864 -432 0
v -864 -408 0
v -840 -408 0
v -864 -432 0
v -888 -432 0
v -888 -408 0
v -864 -408 0
v -888 -432 0
v -912 -432 0
v -912 -408 0
v -888 -408 0
v -912 -432 0
v -936 -432 0
v -936 -408 0
v -912 -408 0
v -936 -432 0
v -960 -432 0
v -960 -408 0
v -936 -408 0
v -960 -432 0
v -984 -432 0
v -984 -408 0
v -960 -408 0
v -984 -432 0
v -1008 -432 0
v -1008 -408 0
v -984 -408 0
v -1008 -432 0
v -1032 -432 0
v -1032 -408 0
v -1008 -408 0
v -1032 -432 0
v -1056 -432 0
v -1056 -408 0
v -1032 -408 0
v -1056 -432 0
v -1080 -432 0
v -1080 -408 0
v -1056 -408 0
v -1080 -432 0
v -1104 -432 0
v -1104 -408 0
v -1080 -408 0
v -1104 -432 0
v -1128 -432 0
v -1128 -408 0
v -1104 -408 0
v -1128 -432 0
v -1152 -432 0
v -1152 -408 0
v -1128 -408 0
v -1152 -432 0
v -1176 -432 0
v -1176 -408 0
v -1152 -408 0
v -1176 -432 0
v -1200 -432 0
v -1200 -408 0
v -1176 -408 0
v -1200 -432 0
v -1224 -432 0
v -1224 -408 0
v -1200 -408 0
v -1224 -432 0
v -1248 -432 0
v -1248 -408 0
v -1224 -408 0
v -1248 -432 0
v -1272 -432 0
v -1272 -408 0
v -1248 -408 0
v -1272 -432 0
v -1296 -432 0
v -1296 -408 0
v -1272 -408 0
v -1296 -432 0
v -1320 -432 0
v -1320 -408 0
v -1296 -408 0
v -1320 -432 0
v -1344 -432 0
v -1344 -408 0
v -1320 -408 0
v -1344 -432 0
v -1368 -432 0
v -1368 -408 0
v -1344 -408 0
v -1368 -432 0
v -1392 -432 0
v -1392 -408 0
v -1368 -408 0
v -1680 -432 0
v -1704 -432 0
v -1704 -408 0
v -1680 -408 0
v -1704 -432 0
v -1728 -432 0
v -1728 -408 0
v -1704 -408 0
v 0 -456 0
v -24 -456 0
v -24 -432 0
v 0 -432 0
v -24 -456 0
v -48 -456 0
v -48 -432 0
v -24 -432 0
v -48 -456 0
v -72 -456 0
v -72 -432 0
v -48 -432 0
v -72 -456 0
v -96 -456 0
v -96 -432 0
v -72 -432 0
v -96 -456 0
v -120 -456 0
v -120 -432 0
v -96 -432 0
v -120 -456 0
v -144 -456 0
v -144 -432 0
v -120 -432 0
v -144 -456 0
v -168 -456 0
v -168 -432 0
v -144 -432 0
v -168 -456 0
v -192 -456 0
v -192 -432 0
v -168 -432 0
v -192 -456 0
v -216 -456 0
v -216 -432 0
v -192 -432 0
v -216 -456 0
v -240 -456 0
v -240 -432 0
v -216 -432 0
v -240 -456 0
v -264 -456 0
v -264 -432 0
v -240 -432 0
v -264 -456 0
v -288 -456 0
v -288 -432 0
v -264 -432 0
v -528 -456 0
v -552 -456 0
v -552 -432 0
v -528 -432 0
v -552 -456 0
v -576 -456 0
v -576 -432 0
v -552 -432 0
v -576 -456 0
v -600 -456 0
v -600 -432 0
v -576 -432 0
v -600 -456 0
v -624 -456 0
v -624 -432 0
v -600 -432 0
v -624 -456 0
v -648 -456 0
v -648 -432 0
v -624 -432 0
v -648 -456 0
v -672 -456 0
v -672 -432 0
v -648 -432 0
v -672 -456 0
v -696 -456 0
v -696 -432 0
v -672 -432 0
v -696 -456 0
v -720 -456 0
v -720 -432 0
v -696 -432 0
v -720 -456 0
v -744 -456 0
v -744 -432 0
v -720 -432 0
v -744 -456 0
v -768 -456 0
v -768 -432 0
v -744 -432 0
v -768 -456 0
v -792 -456 0
v -792 -432 0
v -768 -432 0
v -792 -456 0
v -816 -456 0
v -816 -432 0
v -792 -432 0
v -816 -456 0
v -840 -456 0
v -840 -432 0
v -816 -432 0
v -840 -456 0
v -864 -456 0
v -864 -432 0
v -840 -432 0
v -864 -456 0
v -888 -456 0
v -888 -432 0
v -864 -432 0
v -888 -456 0
v -912 -456 0
v -912 -432 0
v -888 -432 0
v -912 -456 0
v -936 -456 0
v -936 -432 0
v -912 -432 0
v -936 -456 0
v -960 -456 0
v -960 -432 0
v -936 -432 0
v -960 -456 0
v -984 -456 0
v -984 -432 0
v -960 -432 0
v -984 -456 0
v -1008 -456 0
v -1008 -432 0
v -984 -432 0
v -1008 -456 0
v -1032 -456 0
v -1032 -432 0
v -1008 -432 0
v -1032 -456 0
v -1056 -456 0
v -1056 -432 0
v -1032 -432 0
v -1056 -456 0
v -1080 -456 0
v -1080 -432 0
v -1056 -432 0
v -1080 -456 0
v -1104 -456 0
v -1104 -432 0
v -1080 -432 0
v -1104 -456 0
v -1128 -456 0
v -1128 -432 0
v -1104 -432 0
v -1128 -456 0
v -1152 -456 0
v -1152 -432 0
v -1128 -432 0
v -1152 -456 0
v -1176 -456 0
v -1176 -432 0
v -1152 -432 0
v -1176 -456 0
v -1200 -456 0
v -1200 -432 0
v -1176 -432 0
v -1200 -456 0
v -1224 -456 0
v -1224 -432 0
v -1200 -432 0
v -1224 -456 0
v -1248 -456 0
v -1248 -432 0
v -1224 -432 0
v -1248 -456 0
v -1272 -456 0
v -1272 -432 0
v -1248 -432 0
v -1272 -456 0
v -1296 -456 0
v -1296 -432 0
v -1272 -432 0
v -1296 -456 0
v -1320 -456 0
v -1320 -432 0
v -1296 -432 0
v -1320 -456 0
v -1344 -456 0
v -1344 -432 0
v -1320 -432 0
v -1344 -456 0
v -1368 -456 0
v -1368 -432 0
v -1344 -432 0
v -1368 -456 0
v -1392 -456 0
v -1392 -432 0
v -1368 -432 0
v -1680 -456 0
v -1704 -456 0
v -1704 -432 0
v -1680 -432 0
v -1704 -456 0
v -1728 -456 0
v -1728 -432 0
v -1704 -432 0
v 0 -480 0
v -24 -480 0
v -24 -456 0
v 0 -456 0
v -24 -480 0
v -48 -480 0
v -48 -456 0
v -24 -456 0
v -48 -480 0
v -72 -480 0
v -72 -456 0
v -48 -456 0
v -72 -480 0
v -96 -480 0
v -96 -456 0
v -72 -456 0
v -96 -480 0
v -120 -480 0
v -120 -456 0
v -96 -456 0
v -120 -480 0
v -144 -480 0
v -144 -456 0
v -120 -456 0
v -144 -480 0
v -168 -480 0
v -168 -456 0
v -144 -456 0
v -168 -480 0
v -192 -480 0
v -192 -456 0
v -168 -456 0
v -192 -480 0
v -216 -480 0
v -216 -456 0
v -192 -456 0
v -216 -480 0
v -240 -480 0
v -240 -456 0
v -216 -456 0
v -240 -480 0
v -264 -480 0
v -264 -456 0
v -240 -456 0
v -264 -480 0
v -288 -480 0
v -288 -456 0
v -264 -456 0
v -528 -480 0
v -552 -480 0
v -552 -456 0
v -528 -456 0
v -552 -480 0
v -576 -480 0
v -576 -456 0
v -552 -456 0
v -576 -480 0
v -600 -480 0
v -600 -456 0
v -576 -456 0
v -600 -480 0
v -624 -480 0
v -624 -456 0
v -600 -456 0
v -624 -480 0
v -648 -480 0
v -648 -456 0
v -624 -456 0
v -648 -480 0
v -672 -480 0
v -672 -456 0
v -648 -456 0
v -672 -480 0
v -696 -480 0
v -696 -456 0
v -672 -456 0
v -696 -480 0
v -720 -480 0
v -720 -456 0
v -696 -456 0
v -720 -480 0
v -744 -480 0
v -744 -456 0
v -720 -456 0
v -744 -480 0
v -768 -480 0
v -768 -456 0
v -744 -456 0
v -768 -480 0
v -792 -480 0
v -792 -456 0
v -768 -456 0
v -792 -480 0
v -816 -480 0
v -816 -456 0
v -792 -456 0
v -816 -480 0
v -840 -480 0
v -840 -456 0
v -816 -456 0
v -840 -480 0
v -864 -480 0
v -864 -456 0
v -840 -456 0
v -864 -480 0
v -888 -480 0
v -888 -456 0
v -864 -456 0
v -888 -480 0
v -912 -480 0
v -912 -456 0
v -888 -456 0
v -912 -480 0
v -936 -480 0
v -936 -456 0
v -912 -456 0
v -936 -480 0
v -960 -480 0
v -960 -456 0
v -936 -456 0
v -960 -480 0
v -984 -480 0
v -984 -456 0
v -960 -456 0
v -984 -480 0
v -1008 -480 0
v -1008 -456 0
v -984 -456 0
v -1008 -480 0
v -1032 -480 0
v -1032 -456 0
v -1008 -456 0
v -1032 -480 0
v -1056 -480 0
v -1056 -456 0
v -1032 -456 0
v -1056 -480 0
v -1080 -480 0
v -1080 -456 0
v -1056 -456 0
v -1080 -480 0
v -1104 -480 0
v -1104 -456 0
v -1080 -456 0
v -1104 -480 0
v -1128 -480 0
v -1128 -456 0
v -1104 -456 0
v -1128 -480 0
v -1152 -480 0
v -1152 -456 0
v -1128 -456 0
v -1152 -480 0
v -1176 -480 0
v -1176 -456 0
v -1152 -456 0
v -1176 -480 0
v -1200 -480 0
v -1200 -456 0
v -1176 -456 0
v -1200 -480 0
v -1224 -480 0
v -1224 -456 0
v -1200 -456 0
v -1224 -480 0
v -1248 -480 0
v -1248 -456 0
v -1224 -456 0
v -1248 -480 0
v -1272 -480 0
v -1272 -456 0
v -1248 -456 0
v -1272 -480 0
v -1296 -480 0
v -1296 -456 0
v -1272 -456 0
v -1296 -480 0
v -1320 -480 0
v -1320 -456 0
v -1296 -456 0
v -1320 -480 0
v -1344 -480 0
v -1344 -456 0
v -1320 -456 0
v -1344 -480 0
v -1368 -480 0
v -1368 -456 0
v -1344 -456 0
v -1368 -480 0
v -1392 -480 0
v -1392 -456 0
v -1368 -456 0
v -1680 -480 0
v -1704 -480 0
v -1704 -456 0
v -1680 -456 0
v -1704 -480 0
v -1728 -480 0
v -1728 -456 0
v -1704 -456 0

# Texture cooridinates (Count = 9)
vt 0.12 0.9
vt 0.15 0.9
vt 0.15 0.95
vt 0.12 0.95
vt 0.18 0.9
vt 0.18 0.95
vt 0.12 0.85
vt 0.15 0.85
vt 0.18 0.85

# Normal
vn 0 0 -1

# Mesh description
g TMX_1_4_mesh_0002

# Faces
f 1/1/1 2/2/1 3/3/1 4/4/1
f 5/2/1 6/5/1 7/6/1 8/3/1
f 9/1/1 10/2/1 11/3/1 12/4/1
f 13/2/1 14/5/1 15/6/1 16/3/1
f 17/1/1 18/2/1 19/3/1 20/4/1
f 21/2/1 22/5/1 23/6/1 24/3/1
f 25/1/1 26/2/1 27/3/1 28/4/1
f 29/2/1 30/5/1 31/6/1 32/3/1
f 33/1/1 34/2/1 35/3/1 36/4/1
f 37/2/1 38/5/1 39/6/1 40/3/1
f 41/1/1 42/2/1 43/3/1 44/4/1
f 45/2/1 46/5/1 47/6/1 48/3/1
f 49/1/1 50/2/1 51/3/1 52/4/1
f 53/2/1 54/5/1 55/6/1 56/3/1
f 57/1/1 58/2/1 59/3/1 60/4/1
f 61/2/1 62/5/1 63/6/1 64/3/1
f 65/1/1 66/2/1 67/3/1 68/4/1
f 69/2/1 70/5/1 71/6/1 72/3/1
f 73/1/1 74/2/1 75/3/1 76/4/1
f 77/2/1 78/5/1 79/6/1 80/3/1
f 81/1/1 82/2/1 83/3/1 84/4/1
f 85/2/1 86/5/1 87/6/1 88/3/1
f 89/1/1 90/2/1 91/3/1 92/4/1
f 93/2/1 94/5/1 95/6/1 96/3/1
f 97/1/1 98/2/1 99/3/1 100/4/1
f 101/2/1 102/5/1 103/6/1 104/3/1
f 105/1/1 106/2/1 107/3/1 108/4/1
f 109/2/1 110/5/1 111/6/1 112/3/1
f 113/1/1 114/2/1 115/3/1 116/4/1
f 117/2/1 118/5/1 119/6/1 120/3/1
f 121/1/1 122/2/1 123/3/1 124/4/1
f 125/2/1 126/5/1 127/6/1 128/3/1
f 129/1/1 130/2/1 131/3/1 132/4/1
f 133/2/1 134/5/1 135/6/1 136/3/1
f 137/1/1 138/2/1 139/3/1 140/4/1
f 141/2/1 142/5/1 143/6/1 144/3/1
f 145/1/1 146/2/1 147/3/1 148/4/1
f 149/2/1 150/5/1 151/6/1 152/3/1
f 153/1/1 154/2/1 155/3/1 156/4/1
f 157/2/1 158/5/1 159/6/1 160/3/1
f 161/1/1 162/2/1 163/3/1 164/4/1
f 165/2/1 166/5/1 167/6/1 168/3/1
f 169/1/1 170/2/1 171/3/1 172/4/1
f 173/2/1 174/5/1 175/6/1 176/3/1
f 177/1/1 178/2/1 179/3/1 180/4/1
f 181/2/1 182/5/1 183/6/1 184/3/1
f 185/1/1 186/2/1 187/3/1 188/4/1
f 189/2/1 190/5/1 191/6/1 192/3/1
f 193/1/1 194/2/1 195/3/1 196/4/1
f 197/2/1 198/5/1 199/6/1 200/3/1
f 201/7/1 202/8/1 203/2/1 204/1/1
f 205/8/1 206/9/1 207/5/1 208/2/1
f 209/7/1 210/8/1 211/2/1 212/1/1
f 213/8/1 214/9/1 215/5/1 216/2/1
f 217/7/1 218/8/1 219/2/1 220/1/1
f 221/8/1 222/9/1 223/5/1 224/2/1
f 225/7/1 226/8/1 227/2/1 228/1/1
f 229/8/1 230/9/1 231/5/1 232/2/1
f 233/7/1 234/8/1 235/2/1 236/1/1
f 237/8/1 238/9/1 239/5/1 240/2/1
f 241/7/1 242/8/1 243/2/1 244/1/1
f 245/8/1 246/9/1 247/5/1 248/2/1
f 249/7/1 250/8/1 251/2/1 252/1/1
f 253/8/1 254/9/1 255/5/1 256/2/1
f 257/7/1 258/8/1 259/2/1 260/1/1
f 261/8/1 262/9/1 263/5/1 264/2/1
f 265/7/1 266/8/1 267/2/1 268/1/1
f 269/8/1 270/9/1 271/5/1 272/2/1
f 273/7/1 274/8/1 275/2/1 276/1/1
f 277/8/1 278/9/1 279/5/1 280/2/1
f 281/7/1 282/8/1 283/2/1 284/1/1
f 285/8/1 286/9/1 287/5/1 288/2/1
f 289/7/1 290/8/1 291/2/1 292/1/1
f 293/8/1 294/9/1 295/5/1 296/2/1
f 297/7/1 298/8/1 299/2/1 300/1/1
f 301/8/1 302/9/1 303/5/1 304/2/1
f 305/7/1 306/8/1 307/2/1 308/1/1
f 309/8/1 310/9/1 311/5/1 312/2/1
f 313/7/1 314/8/1 315/2/1 316/1/1
f 317/8/1 318/9/1 319/5/1 320/2/1
f 321/7/1 322/8/1 323/2/1 324/1/1
f 325/8/1 326/9/1 327/5/1 328/2/1
f 329/7/1 330/8/1 331/2/1 332/1/1
f 333/8/1 334/9/1 335/5/1 336/2/1
f 337/7/1 338/8/1 339/2/1 340/1/1
f 341/8/1 342/9/1 343/5/1 344/2/1
f 345/7/1 346/8/1 347/2/1 348/1/1
f 349/8/1 350/9/1 351/5/1 352/2/1
f 353/7/1 354/8/1 355/2/1 356/1/1
f 357/8/1 358/9/1 359/5/1 360/2/1
f 361/7/1 362/8/1 363/2/1 364/1/1
f 365/8/1 366/9/1 367/5/1 368/2/1
f 369/7/1 370/8/1 371/2/1 372/1/1
f 373/8/1 374/9/1 375/5/1 376/2/1
f 377/7/1 378/8/1 379/2/1 380/1/1
f 381/8/1 382/9/1 383/5/1 384/2/1
f 385/7/1 386/8/1 387/2/1 388/1/1
f 389/8/1 390/9/1 391/5/1 392/2/1
f 393/7/1 394/8/1 395/2/1 396/1/1
f 397/8/1 398/9/1 399/5/1 400/2/1
f 401/1/1 402/2/1 403/3/1 404/4/1
f 405/2/1 406/5/1 407/6/1 408/3/1
f 409/1/1 410/2/1 411/3/1 412/4/1
f 413/2/1 414/5/1 415/6/1 416/3/1
f 417/1/1 418/2/1 419/3/1 420/4/1
f 421/2/1 422/5/1 423/6/1 424/3/1
f 425/1/1 426/2/1 427/3/1 428/4/1
f 429/2/1 430/5/1 431/6/1 432/3/1
f 433/1/1 434/2/1 435/3/1 436/4/1
f 437/2/1 438/5/1 439/6/1 440/3/1
f 441/1/1 442/2/1 443/3/1 444/4/1
f 445/2/1 446/5/1 447/6/1 448/3/1
f 449/1/1 450/2/1 451/3/1 452/4/1
f 453/2/1 454/5/1 455/6/1 456/3/1
f 457/1/1 458/2/1 459/3/1 460/4/1
f 461/2/1 462/5/1 463/6/1 464/3/1
f 465/1/1 466/2/1 467/3/1 468/4/1
f 469/2/1 470/5/1 471/6/1 472/3/1
f 473/1/1 474/2/1 475/3/1 476/4/1
f 477/2/1 478/5/1 479/6/1 480/3/1
f 481/1/1 482/2/1 483/3/1 484/4/1
f 485/2/1 486/5/1 487/6/1 488/3/1
f 489/1/1 490/2/1 491/3/1 492/4/1
f 493/2/1 494/5/1 495/6/1 496/3/1
f 497/1/1 498/2/1 499/3/1 500/4/1
f 501/2/1 502/5/1 503/6/1 504/3/1
f 505/1/1 506/2/1 507/3/1 508/4/1
f 509/2/1 510/5/1 511/6/1 512/3/1
f 513/1/1 514/2/1 515/3/1 516/4/1
f 517/2/1 518/5/1 519/6/1 520/3/1
f 521/1/1 522/2/1 523/3/1 524/4/1
f 525/2/1 526/5/1 527/6/1 528/3/1
f 529/1/1 530/2/1 531/3/1 532/4/1
f 533/2/1 534/5/1 535/6/1 536/3/1
f 537/1/1 538/2/1 539/3/1 540/4/1
f 541/2/1 542/5/1 543/6/1 544/3/1
f 545/1/1 546/2/1 547/3/1 548/4/1
f 549/2/1 550/5/1 551/6/1 552/3/1
f 553/1/1 554/2/1 555/3/1 556/4/1
f 557/2/1 558/5/1 559/6/1 560/3/1
f 561/1/1 562/2/1 563/3/1 564/4/1
f 565/2/1 566/5/1 567/6/1 568/3/1
f 569/1/1 570/2/1 571/3/1 572/4/1
f 573/2/1 574/5/1 575/6/1 576/3/1
f 577/1/1 578/2/1 579/3/1 580/4/1
f 581/2/1 582/5/1 583/6/1 584/3/1
f 585/1/1 586/2/1 587/3/1 588/4/1
f 589/2/1 590/5/1 591/6/1 592/3/1
f 593/1/1 594/2/1 595/3/1 596/4/1
f 597/2/1 598/5/1 599/6/1 600/3/1
f 601/7/1 602/8/1 603/2/1 604/1/1
f 605/8/1 606/9/1 607/5/1 608/2/1
f 609/7/1 610/8/1 611/2/1 612/1/1
f 613/8/1 614/9/1 615/5/1 616/2/1
f 617/7/1 618/8/1 619/2/1 620/1/1
f 621/8/1 622/9/1 623/5/1 624/2/1
f 625/7/1 626/8/1 627/2/1 628/1/1
f 629/8/1 630/9/1 631/5/1 632/2/1
f 633/7/1 634/8/1 635/2/1 636/1/1
f 637/8/1 638/9/1 639/5/1 640/2/1
f 641/7/1 642/8/1 643/2/1 644/1/1
f 645/8/1 646/9/1 647/5/1 648/2/1
f 649/7/1 650/8/1 651/2/1 652/1/1
f 653/8/1 654/9/1 655/5/1 656/2/1
f 657/7/1 658/8/1 659/2/1 660/1/1
f 661/8/1 662/9/1 663/5/1 664/2/1
f 665/7/1 666/8/1 667/2/1 668/1/1
f 669/8/1 670/9/1 671/5/1 672/2/1
f 673/7/1 674/8/1 675/2/1 676/1/1
f 677/8/1 678/9/1 679/5/1 680/2/1
f 681/7/1 682/8/1 683/2/1 684/1/1
f 685/8/1 686/9/1 687/5/1 688/2/1
f 689/7/1 690/8/1 691/2/1 692/1/1
f 693/8/1 694/9/1 695/5/1 696/2/1
f 697/7/1 698/8/1 699/2/1 700/1/1
f 701/8/1 702/9/1 703/5/1 704/2/1
f 705/7/1 706/8/1 707/2/1 708/1/1
f 709/8/1 710/9/1 711/5/1 712/2/1
f 713/7/1 714/8/1 715/2/1 716/1/1
f 717/8/1 718/9/1 719/5/1 720/2/1
f 721/7/1 722/8/1 723/2/1 724/1/1
f 725/8/1 726/9/1 727/5/1 728/2/1
f 729/7/1 730/8/1 731/2/1 732/1/1
f 733/8/1 734/9/1 735/5/1 736/2/1
f 737/7/1 738/8/1 739/2/1 740/1/1
f 741/8/1 742/9/1 743/5/1 744/2/1
f 745/7/1 746/8/1 747/2/1 748/1/1
f 749/8/1 750/9/1 751/5/1 752/2/1
f 753/7/1 754/8/1 755/2/1 756/1/1
f 757/8/1 758/9/1 759/5/1 760/2/1
f 761/7/1 762/8/1 763/2/1 764/1/1
f 765/8/1 766/9/1 767/5/1 768/2/1
f 769/7/1 770/8/1 771/2/1 772/1/1
f 773/8/1 774/9/1 775/5/1 776/2/1
f 777/7/1 778/8/1 779/2/1 780/1/1
f 781/8/1 782/9/1 783/5/1 784/2/1
f 785/7/1 786/8/1 787/2/1 788/1/1
f 789/8/1 790/9/1 791/5/1 792/2/1
f 793/7/1 794/8/1 795/2/1 796/1/1
f 797/8/1 798/9/1 799/5/1 800/2/1

