# Tiled2Unity generated file. Do not modify by hand.
# Wavefront file for 'TMX_1_1_mesh_0005.obj'

# Vertices (Count = 12)
v -720 -384 0
v -744 -384 0
v -744 -360 0
v -720 -360 0
v -744 -384 0
v -768 -384 0
v -768 -360 0
v -744 -360 0
v -768 -384 0
v -792 -384 0
v -792 -360 0
v -768 -360 0

# Texture cooridinates (Count = 8)
vt 0.27 0.85
vt 0.3 0.85
vt 0.3 0.9
vt 0.27 0.9
vt 0.33 0.85
vt 0.33 0.9
vt 0.36 0.85
vt 0.36 0.9

# Normal
vn 0 0 -1

# Mesh description
g TMX_1_1_mesh_0005

# Faces
f 1/1/1 2/2/1 3/3/1 4/4/1
f 5/2/1 6/5/1 7/6/1 8/3/1
f 9/5/1 10/7/1 11/8/1 12/6/1

