# Tiled2Unity generated file. Do not modify by hand.
# Wavefront file for 'TMX_1_2_mesh_0003.obj'

# Vertices (Count = 72)
v -504 -384 0
v -528 -384 0
v -528 -360 0
v -504 -360 0
v -528 -384 0
v -552 -384 0
v -552 -360 0
v -528 -360 0
v -552 -384 0
v -576 -384 0
v -576 -360 0
v -552 -360 0
v -576 -384 0
v -600 -384 0
v -600 -360 0
v -576 -360 0
v -600 -384 0
v -624 -384 0
v -624 -360 0
v -600 -360 0
v -624 -384 0
v -648 -384 0
v -648 -360 0
v -624 -360 0
v -1392 -384 0
v -1416 -384 0
v -1416 -360 0
v -1392 -360 0
v -1416 -384 0
v -1440 -384 0
v -1440 -360 0
v -1416 -360 0
v -1440 -384 0
v -1464 -384 0
v -1464 -360 0
v -1440 -360 0
v -1464 -384 0
v -1488 -384 0
v -1488 -360 0
v -1464 -360 0
v -1488 -384 0
v -1512 -384 0
v -1512 -360 0
v -1488 -360 0
v -1512 -384 0
v -1536 -384 0
v -1536 -360 0
v -1512 -360 0
v -1536 -384 0
v -1560 -384 0
v -1560 -360 0
v -1536 -360 0
v -1560 -384 0
v -1584 -384 0
v -1584 -360 0
v -1560 -360 0
v -1584 -384 0
v -1608 -384 0
v -1608 -360 0
v -1584 -360 0
v -1608 -384 0
v -1632 -384 0
v -1632 -360 0
v -1608 -360 0
v -1632 -384 0
v -1656 -384 0
v -1656 -360 0
v -1632 -360 0
v -1656 -384 0
v -1680 -384 0
v -1680 -360 0
v -1656 -360 0

# Texture cooridinates (Count = 8)
vt 0.27 0.85
vt 0.3 0.85
vt 0.3 0.9
vt 0.27 0.9
vt 0.33 0.85
vt 0.33 0.9
vt 0.36 0.85
vt 0.36 0.9

# Normal
vn 0 0 -1

# Mesh description
g TMX_1_2_mesh_0003

# Faces
f 1/1/1 2/2/1 3/3/1 4/4/1
f 5/2/1 6/5/1 7/6/1 8/3/1
f 9/5/1 10/7/1 11/8/1 12/6/1
f 13/1/1 14/2/1 15/3/1 16/4/1
f 17/2/1 18/5/1 19/6/1 20/3/1
f 21/5/1 22/7/1 23/8/1 24/6/1
f 25/1/1 26/2/1 27/3/1 28/4/1
f 29/2/1 30/5/1 31/6/1 32/3/1
f 33/5/1 34/7/1 35/8/1 36/6/1
f 37/1/1 38/2/1 39/3/1 40/4/1
f 41/2/1 42/5/1 43/6/1 44/3/1
f 45/5/1 46/7/1 47/8/1 48/6/1
f 49/1/1 50/2/1 51/3/1 52/4/1
f 53/2/1 54/5/1 55/6/1 56/3/1
f 57/5/1 58/7/1 59/8/1 60/6/1
f 61/1/1 62/2/1 63/3/1 64/4/1
f 65/2/1 66/5/1 67/6/1 68/3/1
f 69/5/1 70/7/1 71/8/1 72/6/1

